<?xml version="1.0" encoding="UTF-8" standalone="no"?>
<!-- Created with Inkscape (http://www.inkscape.org/) -->

<svg
   xmlns:dc="http://purl.org/dc/elements/1.1/"
   xmlns:cc="http://creativecommons.org/ns#"
   xmlns:rdf="http://www.w3.org/1999/02/22-rdf-syntax-ns#"
   xmlns:svg="http://www.w3.org/2000/svg"
   xmlns="http://www.w3.org/2000/svg"
   xmlns:xlink="http://www.w3.org/1999/xlink"
   xmlns:sodipodi="http://sodipodi.sourceforge.net/DTD/sodipodi-0.dtd"
   xmlns:inkscape="http://www.inkscape.org/namespaces/inkscape"
   width="15.959208mm"
   height="12.932695mm"
   viewBox="0 0 15.959209 12.932695"
   version="1.1"
   id="svg8"
   inkscape:version="0.92.3 (2405546, 2018-03-11)"
   sodipodi:docname="logo-small.svg">
  <defs
     id="defs2">
    <linearGradient
       inkscape:collect="always"
       id="linearGradient823">
      <stop
         style="stop-color:#373737;stop-opacity:1"
         offset="0"
         id="stop819" />
      <stop
         style="stop-color:#999999;stop-opacity:1"
         offset="1"
         id="stop821" />
    </linearGradient>
    <linearGradient
       inkscape:collect="always"
       xlink:href="#linearGradient823"
       id="linearGradient825"
       x1="43.643032"
       y1="113.12444"
       x2="43.643032"
       y2="118.20255"
       gradientUnits="userSpaceOnUse" />
  </defs>
  <sodipodi:namedview
     id="base"
     pagecolor="#ffffff"
     bordercolor="#666666"
     borderopacity="1.0"
     inkscape:pageopacity="0.0"
     inkscape:pageshadow="2"
     inkscape:zoom="5.6"
     inkscape:cx="46.080943"
     inkscape:cy="32.997098"
     inkscape:document-units="mm"
     inkscape:current-layer="layer1"
     showgrid="false"
     inkscape:window-width="1680"
     inkscape:window-height="988"
     inkscape:window-x="-8"
     inkscape:window-y="-8"
     inkscape:window-maximized="1"
     fit-margin-top="1"
     fit-margin-left="1"
     fit-margin-right="1"
     fit-margin-bottom="1" />
  <metadata
     id="metadata5">
    <rdf:RDF>
      <cc:Work
         rdf:about="">
        <dc:format>image/svg+xml</dc:format>
        <dc:type
           rdf:resource="http://purl.org/dc/dcmitype/StillImage" />
        <dc:title></dc:title>
      </cc:Work>
    </rdf:RDF>
  </metadata>
  <g
     inkscape:label="Taso 1"
     inkscape:groupmode="layer"
     id="layer1"
     transform="translate(-35.025852,-109.57875)">
    <g
       aria-label="DK"
       style="font-style:normal;font-variant:normal;font-weight:normal;font-stretch:normal;font-size:10.58333302px;line-height:1.25;font-family:'Berlin Sans FB Demi';-inkscape-font-specification:'Berlin Sans FB Demi';letter-spacing:0px;word-spacing:0px;fill:url(#linearGradient825);fill-opacity:1;stroke:none;stroke-width:0.30000001;stroke-miterlimit:4;stroke-dasharray:none;stroke-opacity:1"
       id="text817">
      <path
         d="m 42.748956,114.17543 q 0,1.51928 -0.976685,2.6355 -0.862996,0.99735 -2.423624,1.04903 -0.299724,0.0103 -1.648478,0.0103 -0.253215,0 -0.764812,-0.0155 -0.506429,-0.0155 -0.759643,-0.0155 -0.149862,0 -0.149862,-0.11886 0,-0.56844 0.04134,-1.70532 0.04651,-1.14205 0.04651,-1.71049 0,-0.59428 -0.04651,-1.77767 -0.04134,-1.18856 -0.04134,-1.77767 0,-0.10852 0.149862,-0.12919 0.366902,-0.0413 1.204061,-0.0413 1.591634,0 2.061889,0.0465 1.224732,0.12402 1.917196,0.62011 0.651123,0.46509 1.028361,1.30225 0.361735,0.79065 0.361735,1.62781 z m -1.979207,0 q 0,-0.87333 -0.521932,-1.42627 -0.5271,-0.57361 -1.395264,-0.57361 -0.795817,0 -0.795817,0.21187 0,0.30489 -0.01033,0.91984 -0.01034,0.60979 -0.01034,0.91468 0,0.29972 0.01034,0.90433 0.01033,0.59945 0.01033,0.90434 0,0.22221 0.826823,0.22221 0.894002,0 1.405599,-0.59428 0.480591,-0.56327 0.480591,-1.48311 z"
         style="fill:url(#linearGradient825);fill-opacity:1;stroke:none;stroke-width:0.30000001;stroke-miterlimit:4;stroke-dasharray:none;stroke-opacity:1"
         id="path840" />
      <path
         d="m 49.911309,117.5499 q 0,0.22221 -0.191203,0.28939 -0.155029,0.0517 -0.816487,0.0517 -0.63562,0 -0.930176,-0.0517 -0.139526,-0.0258 -0.186035,-0.0517 -0.04134,-0.031 -0.108521,-0.14986 -0.377238,-0.69247 -0.749308,-1.38493 -0.61495,-1.11621 -0.733805,-1.2299 -0.558106,0.20154 -0.558106,0.28939 0,0.38757 0.03101,1.17305 0.03101,0.78032 0.03101,1.17306 0,0.1602 -0.139526,0.18087 -0.268718,0.0413 -0.971517,0.0413 -0.671794,0 -0.888835,-0.0413 -0.149862,-0.031 -0.149862,-0.1602 0,-0.55811 0.05168,-1.68465 0.05684,-1.12655 0.05684,-1.68982 0,-0.59945 -0.05168,-1.79834 -0.05168,-1.20406 -0.05168,-1.80351 0,-0.11369 0.108521,-0.11369 0.160196,0 0.48059,0.0155 0.325562,0.0155 0.485759,0.0155 0.165364,0 0.490926,-0.0155 0.325561,-0.0155 0.485758,-0.0155 0.08785,0 0.08785,0.093 0,0.38241 -0.04134,1.15755 -0.03617,0.76998 -0.03617,1.15239 0,0.44441 0.242879,0.44441 0.614949,0 0.956014,-0.33589 0.253214,-0.24805 0.511596,-0.90434 0.165365,-0.50126 0.542603,-1.47795 0.05684,-0.12919 0.232544,-0.12919 0.134359,0 0.403076,0.0155 0.273885,0.0155 0.408244,0.0155 0.139526,0 0.413411,-0.0103 0.279053,-0.0103 0.413412,-0.0103 0.124023,0 0.124023,0.11885 0,0.17054 -0.217041,0.832 -0.640788,1.95336 -1.472778,2.43912 -0.170532,0.0982 -0.170532,0.1602 0,-0.005 0.950846,1.55029 0.956014,1.55546 0.956014,1.85002 z"
         style="fill:url(#linearGradient825);fill-opacity:1;stroke:none;stroke-width:0.30000001;stroke-miterlimit:4;stroke-dasharray:none;stroke-opacity:1"
         id="path842" />
    </g>
    <g
       aria-label="shop"
       style="font-style:normal;font-variant:normal;font-weight:normal;font-stretch:normal;font-size:4.93888903px;line-height:1.25;font-family:'Berlin Sans FB Demi';-inkscape-font-specification:'Berlin Sans FB Demi';letter-spacing:0px;word-spacing:0px;fill:#ff6600;fill-opacity:1;stroke:none;stroke-width:0.30000001;stroke-miterlimit:4;stroke-dasharray:none;stroke-opacity:1"
       id="text829">
      <path
         d="m 41.568692,118.80325 q 0,0.0241 -0.03617,0.0651 -0.06752,-0.0169 -0.135048,-0.0169 -0.142282,0 -0.238745,0.0627 -0.115755,0.0723 -0.115755,0.20498 0,0.0844 0.12299,0.21463 0.185691,0.19534 0.229099,0.26286 0.12299,0.18328 0.12299,0.39308 0,0.12299 -0.04823,0.26045 -0.05547,0.15193 -0.13987,0.22187 -0.178456,0.15434 -0.417201,0.26045 -0.258038,0.11093 -0.475079,0.11093 -0.04823,0 -0.217041,-0.26045 -0.166398,-0.26286 -0.166398,-0.32074 0,-0.0217 0.02653,-0.0265 0.16881,-0.0314 0.340031,-0.0627 0.212218,-0.0675 0.212218,-0.22186 0,-0.10611 -0.12299,-0.24598 -0.219453,-0.24357 -0.229099,-0.25804 -0.12299,-0.17363 -0.12299,-0.36656 0,-0.36173 0.366558,-0.61495 0.327973,-0.22427 0.701766,-0.22427 0.03858,0 0.190514,0.26045 0.151929,0.25804 0.151929,0.30144 z"
         style="font-size:4.93888903px;fill:#ff6600;stroke:none;stroke-width:0.30000001;stroke-miterlimit:4;stroke-dasharray:none;stroke-opacity:1"
         id="path831" />
      <path
         d="m 44.32029,119.00583 -0.0048,1.66398 q 0,0.0844 -0.06752,0.094 -0.07717,0.01 -0.352089,0.01 -0.265273,0 -0.36897,-0.0193 -0.07958,-0.0145 -0.07958,-0.1037 0,-0.20739 0.0072,-0.62459 0.0072,-0.4172 0.0072,-0.6246 0,-0.28215 -0.286977,-0.28215 -0.09646,0 -0.226687,0.0772 -0.142282,0.0844 -0.142282,0.17604 v 0.59566 q 0,0.11576 0.0048,0.34968 0.0048,0.23151 0.0048,0.34726 0,0.0892 -0.07476,0.0989 -0.07476,0.01 -0.419612,0.01 -0.197749,0 -0.284565,-0.0193 -0.08682,-0.0193 -0.08682,-0.0844 0,-0.19052 0.0024,-0.57154 0.0024,-0.38344 0.0024,-0.57396 0,-0.78858 -0.01688,-1.30466 -0.0072,-0.18086 -0.01206,-0.36173 -0.01206,-0.20981 -0.04341,-0.35932 -0.0072,-0.0313 -0.0072,-0.0458 0,-0.0362 0.03617,-0.0482 0.07476,-0.0217 0.219453,-0.0265 0.192925,-0.007 0.224276,-0.0121 0.436493,-0.0506 0.436493,-0.0506 0.03858,0 0.03858,0.0506 0,0.0772 -0.0096,0.20981 -0.0096,0.15434 -0.0096,0.2098 -0.01447,0.54502 -0.01447,0.86093 0,0.0482 0.02412,0.0482 0.0048,0 0.12299,-0.0844 0.139871,-0.0989 0.267684,-0.15675 0.190514,-0.0844 0.36897,-0.0844 0.30868,0 0.516075,0.16158 0.224276,0.17363 0.224276,0.47508 z"
         style="font-size:4.93888903px;fill:#ff6600;stroke:none;stroke-width:0.30000001;stroke-miterlimit:4;stroke-dasharray:none;stroke-opacity:1"
         id="path833" />
      <path
         d="m 47.030891,119.56772 q 0,0.54984 -0.337619,0.89228 -0.335208,0.34244 -0.882634,0.34244 -0.530545,0 -0.872987,-0.33762 -0.342443,-0.33762 -0.342443,-0.86816 0,-0.55948 0.327974,-0.90675 0.327973,-0.34968 0.887456,-0.34968 0.545014,0 0.882634,0.34245 0.337619,0.34003 0.337619,0.88504 z m -0.790994,0 q 0,-0.19051 -0.118167,-0.33521 -0.118166,-0.1471 -0.306269,-0.1471 -0.190513,0 -0.313503,0.14951 -0.115756,0.13988 -0.115756,0.3328 0,0.19534 0.115756,0.33521 0.12299,0.14952 0.313503,0.14952 0.188103,0 0.311092,-0.14952 0.113344,-0.13987 0.113344,-0.33521 z"
         style="font-size:4.93888903px;fill:#ff6600;stroke:none;stroke-width:0.30000001;stroke-miterlimit:4;stroke-dasharray:none;stroke-opacity:1"
         id="path835" />
      <path
         d="m 49.985061,119.59425 q 0,0.51607 -0.303858,0.8561 -0.313504,0.35209 -0.822344,0.35209 -0.185691,0 -0.397909,-0.0916 -0.212218,-0.0916 -0.192925,-0.0916 -0.03135,0 -0.03135,0.0724 0,0.12299 0.01206,0.36897 0.01206,0.24839 0.01206,0.37138 0,0.0772 -0.07958,0.0772 l -0.49196,0.002 q -0.166398,0 -0.21463,-0.012 -0.07235,-0.0169 -0.07235,-0.0892 l 0.0048,-1.85691 q 0,-0.56189 -0.08441,-0.94774 -0.0048,-0.0241 -0.0048,-0.041 0,-0.0362 0.02894,-0.0482 0.09405,-0.0362 0.359324,-0.0772 0.258038,-0.041 0.373793,-0.041 0.09405,0 0.106109,0.1254 0.01447,0.12299 0.03376,0.12299 -0.02412,0 0.204983,-0.13022 0.23151,-0.13264 0.419612,-0.13264 0.52331,0 0.836814,0.34486 0.303858,0.33279 0.303858,0.86575 z m -0.894692,-0.005 q 0,-0.19292 -0.118167,-0.33761 -0.127813,-0.15193 -0.315915,-0.15193 -0.192925,0 -0.30868,0.15193 -0.101286,0.13745 -0.101286,0.33761 0,0.20499 0.106109,0.34004 0.113343,0.1471 0.313503,0.1471 0.424436,0 0.424436,-0.48714 z"
         style="font-size:4.93888903px;fill:#ff6600;stroke:none;stroke-width:0.30000001;stroke-miterlimit:4;stroke-dasharray:none;stroke-opacity:1"
         id="path837" />
    </g>
  </g>
</svg>
