<?xml version="1.0" encoding="UTF-8" standalone="no"?>
<!-- Created with Inkscape (http://www.inkscape.org/) -->

<svg
   xmlns:dc="http://purl.org/dc/elements/1.1/"
   xmlns:cc="http://creativecommons.org/ns#"
   xmlns:rdf="http://www.w3.org/1999/02/22-rdf-syntax-ns#"
   xmlns:svg="http://www.w3.org/2000/svg"
   xmlns="http://www.w3.org/2000/svg"
   xmlns:xlink="http://www.w3.org/1999/xlink"
   xmlns:sodipodi="http://sodipodi.sourceforge.net/DTD/sodipodi-0.dtd"
   xmlns:inkscape="http://www.inkscape.org/namespaces/inkscape"
   width="64"
   height="64"
   viewBox="0 0 16.933335 16.933333"
   version="1.1"
   id="svg8"
   inkscape:version="0.92.3 (2405546, 2018-03-11)"
   sodipodi:docname="logo-icon.svg">
  <defs
     id="defs2">
    <linearGradient
       inkscape:collect="always"
       id="linearGradient823">
      <stop
         style="stop-color:#373737;stop-opacity:1"
         offset="0"
         id="stop819" />
      <stop
         style="stop-color:#999999;stop-opacity:1"
         offset="1"
         id="stop821" />
    </linearGradient>
    <linearGradient
       inkscape:collect="always"
       xlink:href="#linearGradient823"
       id="linearGradient825"
       x1="43.643032"
       y1="113.12444"
       x2="43.643032"
       y2="118.20255"
       gradientUnits="userSpaceOnUse" />
    <linearGradient
       inkscape:collect="always"
       xlink:href="#linearGradient823"
       id="linearGradient3175"
       gradientUnits="userSpaceOnUse"
       x1="43.643032"
       y1="113.12444"
       x2="43.643032"
       y2="118.20255" />
    <linearGradient
       inkscape:collect="always"
       xlink:href="#linearGradient823"
       id="linearGradient3177"
       gradientUnits="userSpaceOnUse"
       x1="43.643032"
       y1="113.12444"
       x2="43.643032"
       y2="118.20255" />
    <filter
       inkscape:collect="always"
       style="color-interpolation-filters:sRGB"
       id="filter3373"
       x="-0.091596632"
       width="1.1831933"
       y="-0.17393619"
       height="1.3478724">
      <feGaussianBlur
         inkscape:collect="always"
         stdDeviation="0.52994228"
         id="feGaussianBlur3375" />
    </filter>
  </defs>
  <sodipodi:namedview
     id="base"
     pagecolor="#ffffff"
     bordercolor="#666666"
     borderopacity="1.0"
     inkscape:pageopacity="0.0"
     inkscape:pageshadow="2"
     inkscape:zoom="5.6"
     inkscape:cx="36.259515"
     inkscape:cy="32.997098"
     inkscape:document-units="mm"
     inkscape:current-layer="layer1"
     showgrid="false"
     inkscape:window-width="1680"
     inkscape:window-height="988"
     inkscape:window-x="-8"
     inkscape:window-y="-8"
     inkscape:window-maximized="1"
     fit-margin-top="1"
     fit-margin-left="1"
     fit-margin-right="1"
     fit-margin-bottom="1"
     units="px" />
  <metadata
     id="metadata5">
    <rdf:RDF>
      <cc:Work
         rdf:about="">
        <dc:format>image/svg+xml</dc:format>
        <dc:type
           rdf:resource="http://purl.org/dc/dcmitype/StillImage" />
        <dc:title></dc:title>
      </cc:Work>
    </rdf:RDF>
  </metadata>
  <g
     inkscape:label="Taso 1"
     inkscape:groupmode="layer"
     id="layer1"
     transform="translate(-35.025852,-105.57811)">
    <g
       transform="translate(0.70870536,-0.42522322)"
       id="g3183"
       style="font-style:normal;font-variant:normal;font-weight:normal;font-stretch:normal;font-size:10.58333302px;line-height:1.25;font-family:'Berlin Sans FB Demi';-inkscape-font-specification:'Berlin Sans FB Demi';letter-spacing:0px;word-spacing:0px;fill:#ffffff;fill-opacity:1;stroke:none;stroke-width:0.30000001;stroke-miterlimit:4;stroke-dasharray:none;stroke-opacity:1;filter:url(#filter3373)"
       aria-label="DK">
      <path
         inkscape:connector-curvature="0"
         id="path3179"
         style="fill:#ffffff;fill-opacity:1;stroke:none;stroke-width:0.30000001;stroke-miterlimit:4;stroke-dasharray:none;stroke-opacity:1"
         d="m 42.748956,114.17543 q 0,1.51928 -0.976685,2.6355 -0.862996,0.99735 -2.423624,1.04903 -0.299724,0.0103 -1.648478,0.0103 -0.253215,0 -0.764812,-0.0155 -0.506429,-0.0155 -0.759643,-0.0155 -0.149862,0 -0.149862,-0.11886 0,-0.56844 0.04134,-1.70532 0.04651,-1.14205 0.04651,-1.71049 0,-0.59428 -0.04651,-1.77767 -0.04134,-1.18856 -0.04134,-1.77767 0,-0.10852 0.149862,-0.12919 0.366902,-0.0413 1.204061,-0.0413 1.591634,0 2.061889,0.0465 1.224732,0.12402 1.917196,0.62011 0.651123,0.46509 1.028361,1.30225 0.361735,0.79065 0.361735,1.62781 z m -1.979207,0 q 0,-0.87333 -0.521932,-1.42627 -0.5271,-0.57361 -1.395264,-0.57361 -0.795817,0 -0.795817,0.21187 0,0.30489 -0.01033,0.91984 -0.01034,0.60979 -0.01034,0.91468 0,0.29972 0.01034,0.90433 0.01033,0.59945 0.01033,0.90434 0,0.22221 0.826823,0.22221 0.894002,0 1.405599,-0.59428 0.480591,-0.56327 0.480591,-1.48311 z" />
      <path
         inkscape:connector-curvature="0"
         id="path3181"
         style="fill:#ffffff;fill-opacity:1;stroke:none;stroke-width:0.30000001;stroke-miterlimit:4;stroke-dasharray:none;stroke-opacity:1"
         d="m 49.911309,117.5499 q 0,0.22221 -0.191203,0.28939 -0.155029,0.0517 -0.816487,0.0517 -0.63562,0 -0.930176,-0.0517 -0.139526,-0.0258 -0.186035,-0.0517 -0.04134,-0.031 -0.108521,-0.14986 -0.377238,-0.69247 -0.749308,-1.38493 -0.61495,-1.11621 -0.733805,-1.2299 -0.558106,0.20154 -0.558106,0.28939 0,0.38757 0.03101,1.17305 0.03101,0.78032 0.03101,1.17306 0,0.1602 -0.139526,0.18087 -0.268718,0.0413 -0.971517,0.0413 -0.671794,0 -0.888835,-0.0413 -0.149862,-0.031 -0.149862,-0.1602 0,-0.55811 0.05168,-1.68465 0.05684,-1.12655 0.05684,-1.68982 0,-0.59945 -0.05168,-1.79834 -0.05168,-1.20406 -0.05168,-1.80351 0,-0.11369 0.108521,-0.11369 0.160196,0 0.48059,0.0155 0.325562,0.0155 0.485759,0.0155 0.165364,0 0.490926,-0.0155 0.325561,-0.0155 0.485758,-0.0155 0.08785,0 0.08785,0.093 0,0.38241 -0.04134,1.15755 -0.03617,0.76998 -0.03617,1.15239 0,0.44441 0.242879,0.44441 0.614949,0 0.956014,-0.33589 0.253214,-0.24805 0.511596,-0.90434 0.165365,-0.50126 0.542603,-1.47795 0.05684,-0.12919 0.232544,-0.12919 0.134359,0 0.403076,0.0155 0.273885,0.0155 0.408244,0.0155 0.139526,0 0.413411,-0.0103 0.279053,-0.0103 0.413412,-0.0103 0.124023,0 0.124023,0.11885 0,0.17054 -0.217041,0.832 -0.640788,1.95336 -1.472778,2.43912 -0.170532,0.0982 -0.170532,0.1602 0,-0.005 0.950846,1.55029 0.956014,1.55546 0.956014,1.85002 z" />
    </g>
    <g
       aria-label="DK"
       style="font-style:normal;font-variant:normal;font-weight:normal;font-stretch:normal;font-size:10.58333302px;line-height:1.25;font-family:'Berlin Sans FB Demi';-inkscape-font-specification:'Berlin Sans FB Demi';letter-spacing:0px;word-spacing:0px;fill:url(#linearGradient825);fill-opacity:1;stroke:none;stroke-width:0.30000001;stroke-miterlimit:4;stroke-dasharray:none;stroke-opacity:1"
       id="text817"
       transform="translate(0.70870536,-0.42522322)">
      <path
         d="m 42.748956,114.17543 q 0,1.51928 -0.976685,2.6355 -0.862996,0.99735 -2.423624,1.04903 -0.299724,0.0103 -1.648478,0.0103 -0.253215,0 -0.764812,-0.0155 -0.506429,-0.0155 -0.759643,-0.0155 -0.149862,0 -0.149862,-0.11886 0,-0.56844 0.04134,-1.70532 0.04651,-1.14205 0.04651,-1.71049 0,-0.59428 -0.04651,-1.77767 -0.04134,-1.18856 -0.04134,-1.77767 0,-0.10852 0.149862,-0.12919 0.366902,-0.0413 1.204061,-0.0413 1.591634,0 2.061889,0.0465 1.224732,0.12402 1.917196,0.62011 0.651123,0.46509 1.028361,1.30225 0.361735,0.79065 0.361735,1.62781 z m -1.979207,0 q 0,-0.87333 -0.521932,-1.42627 -0.5271,-0.57361 -1.395264,-0.57361 -0.795817,0 -0.795817,0.21187 0,0.30489 -0.01033,0.91984 -0.01034,0.60979 -0.01034,0.91468 0,0.29972 0.01034,0.90433 0.01033,0.59945 0.01033,0.90434 0,0.22221 0.826823,0.22221 0.894002,0 1.405599,-0.59428 0.480591,-0.56327 0.480591,-1.48311 z"
         style="fill:url(#linearGradient3175);fill-opacity:1;stroke:none;stroke-width:0.30000001;stroke-miterlimit:4;stroke-dasharray:none;stroke-opacity:1"
         id="path840"
         inkscape:connector-curvature="0" />
      <path
         d="m 49.911309,117.5499 q 0,0.22221 -0.191203,0.28939 -0.155029,0.0517 -0.816487,0.0517 -0.63562,0 -0.930176,-0.0517 -0.139526,-0.0258 -0.186035,-0.0517 -0.04134,-0.031 -0.108521,-0.14986 -0.377238,-0.69247 -0.749308,-1.38493 -0.61495,-1.11621 -0.733805,-1.2299 -0.558106,0.20154 -0.558106,0.28939 0,0.38757 0.03101,1.17305 0.03101,0.78032 0.03101,1.17306 0,0.1602 -0.139526,0.18087 -0.268718,0.0413 -0.971517,0.0413 -0.671794,0 -0.888835,-0.0413 -0.149862,-0.031 -0.149862,-0.1602 0,-0.55811 0.05168,-1.68465 0.05684,-1.12655 0.05684,-1.68982 0,-0.59945 -0.05168,-1.79834 -0.05168,-1.20406 -0.05168,-1.80351 0,-0.11369 0.108521,-0.11369 0.160196,0 0.48059,0.0155 0.325562,0.0155 0.485759,0.0155 0.165364,0 0.490926,-0.0155 0.325561,-0.0155 0.485758,-0.0155 0.08785,0 0.08785,0.093 0,0.38241 -0.04134,1.15755 -0.03617,0.76998 -0.03617,1.15239 0,0.44441 0.242879,0.44441 0.614949,0 0.956014,-0.33589 0.253214,-0.24805 0.511596,-0.90434 0.165365,-0.50126 0.542603,-1.47795 0.05684,-0.12919 0.232544,-0.12919 0.134359,0 0.403076,0.0155 0.273885,0.0155 0.408244,0.0155 0.139526,0 0.413411,-0.0103 0.279053,-0.0103 0.413412,-0.0103 0.124023,0 0.124023,0.11885 0,0.17054 -0.217041,0.832 -0.640788,1.95336 -1.472778,2.43912 -0.170532,0.0982 -0.170532,0.1602 0,-0.005 0.950846,1.55029 0.956014,1.55546 0.956014,1.85002 z"
         style="fill:url(#linearGradient3177);fill-opacity:1;stroke:none;stroke-width:0.30000001;stroke-miterlimit:4;stroke-dasharray:none;stroke-opacity:1"
         id="path842"
         inkscape:connector-curvature="0" />
    </g>
  </g>
</svg>
