<?xml version="1.0" encoding="UTF-8" standalone="no"?>
<!-- Created with Inkscape (http://www.inkscape.org/) -->

<svg
   xmlns:dc="http://purl.org/dc/elements/1.1/"
   xmlns:cc="http://creativecommons.org/ns#"
   xmlns:rdf="http://www.w3.org/1999/02/22-rdf-syntax-ns#"
   xmlns:svg="http://www.w3.org/2000/svg"
   xmlns="http://www.w3.org/2000/svg"
   xmlns:xlink="http://www.w3.org/1999/xlink"
   xmlns:sodipodi="http://sodipodi.sourceforge.net/DTD/sodipodi-0.dtd"
   xmlns:inkscape="http://www.inkscape.org/namespaces/inkscape"
   width="60.6712mm"
   height="13.865897mm"
   viewBox="0 0 60.6712 13.865897"
   version="1.1"
   id="svg8"
   inkscape:version="0.92.3 (2405546, 2018-03-11)"
   sodipodi:docname="logo-full.svg">
  <defs
     id="defs2">
    <linearGradient
       inkscape:collect="always"
       id="linearGradient823">
      <stop
         style="stop-color:#373737;stop-opacity:1"
         offset="0"
         id="stop819" />
      <stop
         style="stop-color:#999999;stop-opacity:1"
         offset="1"
         id="stop821" />
    </linearGradient>
    <linearGradient
       inkscape:collect="always"
       xlink:href="#linearGradient823"
       id="linearGradient825"
       x1="43.643032"
       y1="113.12444"
       x2="43.643032"
       y2="118.20255"
       gradientUnits="userSpaceOnUse" />
  </defs>
  <sodipodi:namedview
     id="base"
     pagecolor="#ffffff"
     bordercolor="#666666"
     borderopacity="1.0"
     inkscape:pageopacity="0.0"
     inkscape:pageshadow="2"
     inkscape:zoom="3.959798"
     inkscape:cx="56.178265"
     inkscape:cy="14.471342"
     inkscape:document-units="mm"
     inkscape:current-layer="layer1"
     showgrid="false"
     inkscape:window-width="1680"
     inkscape:window-height="988"
     inkscape:window-x="-8"
     inkscape:window-y="-8"
     inkscape:window-maximized="1"
     fit-margin-top="1"
     fit-margin-left="1"
     fit-margin-right="1"
     fit-margin-bottom="1" />
  <metadata
     id="metadata5">
    <rdf:RDF>
      <cc:Work
         rdf:about="">
        <dc:format>image/svg+xml</dc:format>
        <dc:type
           rdf:resource="http://purl.org/dc/dcmitype/StillImage" />
        <dc:title />
      </cc:Work>
    </rdf:RDF>
  </metadata>
  <g
     inkscape:label="Taso 1"
     inkscape:groupmode="layer"
     id="layer1"
     transform="translate(-35.025852,-109.42889)">
    <g
       aria-label="Dark Karma"
       style="font-style:normal;font-variant:normal;font-weight:normal;font-stretch:normal;font-size:10.58333302px;line-height:1.25;font-family:'Berlin Sans FB Demi';-inkscape-font-specification:'Berlin Sans FB Demi';letter-spacing:0px;word-spacing:0px;fill:url(#linearGradient825);fill-opacity:1;stroke:none;stroke-width:0.30000001;stroke-miterlimit:4;stroke-dasharray:none;stroke-opacity:1"
       id="text817">
      <path
         d="m 42.748956,114.17543 q 0,1.51928 -0.976685,2.6355 -0.862996,0.99735 -2.423624,1.04903 -0.299724,0.0103 -1.648478,0.0103 -0.253215,0 -0.764812,-0.0155 -0.506429,-0.0155 -0.759643,-0.0155 -0.149862,0 -0.149862,-0.11886 0,-0.56844 0.04134,-1.70532 0.04651,-1.14205 0.04651,-1.71049 0,-0.59428 -0.04651,-1.77767 -0.04134,-1.18856 -0.04134,-1.77767 0,-0.10852 0.149862,-0.12919 0.366902,-0.0413 1.204061,-0.0413 1.591634,0 2.061889,0.0465 1.224732,0.12402 1.917196,0.62011 0.651123,0.46509 1.028361,1.30225 0.361735,0.79065 0.361735,1.62781 z m -1.979207,0 q 0,-0.87333 -0.521932,-1.42627 -0.5271,-0.57361 -1.395264,-0.57361 -0.795817,0 -0.795817,0.21187 0,0.30489 -0.01033,0.91984 -0.01034,0.60979 -0.01034,0.91468 0,0.29972 0.01034,0.90433 0.01033,0.59945 0.01033,0.90434 0,0.22221 0.826823,0.22221 0.894002,0 1.405599,-0.59428 0.480591,-0.56327 0.480591,-1.48311 z"
         style="fill:url(#linearGradient825);fill-opacity:1;stroke:none;stroke-width:0.30000001;stroke-miterlimit:4;stroke-dasharray:none;stroke-opacity:1"
         id="path1401" />
      <path
         d="m 48.707248,115.25547 q 0,0.3979 0.04651,1.18339 0.04651,0.78548 0.04651,1.17822 0,0.2067 -0.180868,0.22221 -0.640787,0.0465 -1.46761,0.0465 -0.09819,0 -0.134359,-0.29456 -0.03101,-0.29972 -0.07751,-0.30489 -0.04134,0.0207 -0.10852,0.0879 -0.578776,0.58394 -1.240235,0.58394 -1.00769,0 -1.669148,-0.79581 -0.625285,-0.74415 -0.625285,-1.77767 0,-1.19373 0.645955,-1.92237 0.671794,-0.75447 1.839681,-0.75447 0.81132,0 1.281576,0.56844 0.02067,0.0258 0.03617,0.0258 0.04651,0 0.103353,-0.24805 0.06201,-0.25322 0.144694,-0.25322 0.191203,0 0.728638,0.10853 0.511596,0.10335 0.733805,0.1757 0.07751,0.031 0.07751,0.0827 0,0.0207 -0.0155,0.10852 -0.165365,0.93534 -0.165365,1.97921 z m -1.663981,0.031 q 0,-0.43925 -0.279053,-0.72347 -0.273885,-0.28939 -0.718302,-0.28939 -0.444417,0 -0.718302,0.28422 -0.273885,0.28422 -0.273885,0.72864 0,0.41858 0.289388,0.7183 0.289388,0.29973 0.702799,0.29973 0.43925,0 0.718302,-0.28422 0.279053,-0.28939 0.279053,-0.73381 z"
         style="fill:url(#linearGradient825);fill-opacity:1;stroke:none;stroke-width:0.30000001;stroke-miterlimit:4;stroke-dasharray:none;stroke-opacity:1"
         id="path1403" />
      <path
         d="m 53.161757,114.61985 q 0,0.20153 -0.222209,0.20153 -0.09819,0 -0.289388,-0.0103 -0.186035,-0.0155 -0.279052,-0.0155 -0.428915,0 -0.583944,0.13435 -0.155029,0.13436 -0.155029,0.54261 0,0.2222 0.0052,0.67696 0.01034,0.44958 0.01034,0.67179 0,0.14986 0.02067,0.44959 0.02067,0.29455 0.02067,0.43925 0,0.12402 -0.170532,0.13952 -0.248047,0.0207 -0.759644,0.0207 -0.490926,0 -0.785482,-0.031 -0.170532,-0.0207 -0.170532,-0.17054 0,-0.41341 0.0052,-1.23506 0.0052,-0.82683 0.0052,-1.24024 0,-1.21439 -0.222208,-1.99987 -0.01034,-0.0465 -0.01034,-0.0775 0,-0.0775 0.07752,-0.10335 0.28422,-0.031 0.831991,-0.11369 0.816487,-0.1602 0.842325,-0.1602 0.09302,0 0.118856,0.32556 0.02584,0.32557 0.09302,0.32557 -0.07235,0 0.423746,-0.26872 0.496094,-0.27389 0.956014,-0.27389 0.289388,0 0.289388,0.12403 0,0.14986 -0.03101,0.42374 -0.03101,0.29456 -0.03617,0.42375 0,0.14986 0.0052,0.39791 0.01034,0.30489 0.01034,0.40308 z"
         style="fill:url(#linearGradient825);fill-opacity:1;stroke:none;stroke-width:0.30000001;stroke-miterlimit:4;stroke-dasharray:none;stroke-opacity:1"
         id="path1405" />
      <path
         d="m 59.507623,114.46482 q 0,1.14204 -1.121379,1.73632 -0.103353,0.0517 -0.103353,0.10852 0,0.0879 0.480591,0.73381 0.480591,0.64079 0.480591,0.67179 0,0.13953 -1.369425,0.13953 -0.5271,0 -0.609782,-0.13436 -0.206706,-0.34623 -0.645956,-0.99219 -0.02584,-0.031 -0.930175,-0.0723 0,0.16019 0.0052,0.51159 0.0052,0.3514 0.0052,0.52194 0,0.15502 -0.149862,0.17053 -0.09302,0.0103 -0.816487,0.0103 -0.625285,0 -0.728638,-0.0207 -0.139526,-0.0258 -0.139526,-0.21187 v -3.1626 q 0,-0.63562 -0.04651,-1.90169 -0.04651,-1.26607 -0.04651,-1.89653 0,-0.12402 0.139526,-0.12919 0.273885,0 0.821656,-0.0103 0.144694,-0.0103 0.501261,-0.062 0.315226,-0.0465 0.496094,-0.0465 0.08268,0 0.08268,0.14986 0,0.19637 -0.03101,0.53227 -0.03617,0.39274 -0.04134,0.53743 -0.04651,1.11104 -0.04651,1.72083 0,0.14469 0.03617,0.14986 0.04651,-0.031 0.124023,-0.11369 0.671794,-0.69763 1.632975,-0.69763 0.904338,0 1.436605,0.41341 0.583944,0.45992 0.583944,1.34359 z m -2.051554,0.33589 q 0,-0.62528 -0.707968,-0.62528 -0.315226,0 -0.671793,0.23771 -0.382406,0.25321 -0.382406,0.55294 0,0.42891 0.118856,0.51676 0.09302,0.062 0.594279,0.062 1.049032,0 1.049032,-0.74414 z"
         style="fill:url(#linearGradient825);fill-opacity:1;stroke:none;stroke-width:0.30000001;stroke-miterlimit:4;stroke-dasharray:none;stroke-opacity:1"
         id="path1407" />
      <path
         d="m 69.176283,117.5499 q 0,0.22221 -0.191203,0.28939 -0.155029,0.0517 -0.816488,0.0517 -0.63562,0 -0.930175,-0.0517 -0.139527,-0.0258 -0.186036,-0.0517 -0.04134,-0.031 -0.10852,-0.14986 -0.377238,-0.69247 -0.749308,-1.38493 -0.61495,-1.11621 -0.733806,-1.2299 -0.558105,0.20154 -0.558105,0.28939 0,0.38757 0.03101,1.17305 0.03101,0.78032 0.03101,1.17306 0,0.1602 -0.139527,0.18087 -0.268717,0.0413 -0.971517,0.0413 -0.671793,0 -0.888834,-0.0413 -0.149862,-0.031 -0.149862,-0.1602 0,-0.55811 0.05168,-1.68465 0.05684,-1.12655 0.05684,-1.68982 0,-0.59945 -0.05168,-1.79834 -0.05168,-1.20406 -0.05168,-1.80351 0,-0.11369 0.10852,-0.11369 0.160197,0 0.480591,0.0155 0.325562,0.0155 0.485758,0.0155 0.165365,0 0.490927,-0.0155 0.325561,-0.0155 0.485758,-0.0155 0.08785,0 0.08785,0.093 0,0.38241 -0.04134,1.15755 -0.03617,0.76998 -0.03617,1.15239 0,0.44441 0.24288,0.44441 0.614949,0 0.956013,-0.33589 0.253215,-0.24805 0.511597,-0.90434 0.165365,-0.50126 0.542603,-1.47795 0.05684,-0.12919 0.232544,-0.12919 0.134358,0 0.403076,0.0155 0.273885,0.0155 0.408244,0.0155 0.139526,0 0.413411,-0.0103 0.279053,-0.0103 0.413411,-0.0103 0.124024,0 0.124024,0.11885 0,0.17054 -0.217041,0.832 -0.640788,1.95336 -1.472778,2.43912 -0.170533,0.0982 -0.170533,0.1602 0,-0.005 0.950847,1.55029 0.956014,1.55546 0.956014,1.85002 z"
         style="fill:url(#linearGradient825);fill-opacity:1;stroke:none;stroke-width:0.30000001;stroke-miterlimit:4;stroke-dasharray:none;stroke-opacity:1"
         id="path1409" />
      <path
         d="m 74.938204,115.25547 q 0,0.3979 0.04651,1.18339 0.04651,0.78548 0.04651,1.17822 0,0.2067 -0.180868,0.22221 -0.640787,0.0465 -1.46761,0.0465 -0.09819,0 -0.134359,-0.29456 -0.03101,-0.29972 -0.07752,-0.30489 -0.04134,0.0207 -0.10852,0.0879 -0.578776,0.58394 -1.240234,0.58394 -1.007691,0 -1.669149,-0.79581 -0.625285,-0.74415 -0.625285,-1.77767 0,-1.19373 0.645955,-1.92237 0.671794,-0.75447 1.839681,-0.75447 0.81132,0 1.281576,0.56844 0.02067,0.0258 0.03617,0.0258 0.04651,0 0.103353,-0.24805 0.06201,-0.25322 0.144694,-0.25322 0.191203,0 0.728638,0.10853 0.511596,0.10335 0.733805,0.1757 0.07752,0.031 0.07752,0.0827 0,0.0207 -0.0155,0.10852 -0.165365,0.93534 -0.165365,1.97921 z m -1.663981,0.031 q 0,-0.43925 -0.279053,-0.72347 -0.273885,-0.28939 -0.718302,-0.28939 -0.444417,0 -0.718302,0.28422 -0.273885,0.28422 -0.273885,0.72864 0,0.41858 0.289388,0.7183 0.289388,0.29973 0.702799,0.29973 0.43925,0 0.718302,-0.28422 0.279053,-0.28939 0.279053,-0.73381 z"
         style="fill:url(#linearGradient825);fill-opacity:1;stroke:none;stroke-width:0.30000001;stroke-miterlimit:4;stroke-dasharray:none;stroke-opacity:1"
         id="path1411" />
      <path
         d="m 79.392714,114.61985 q 0,0.20153 -0.222209,0.20153 -0.09819,0 -0.289388,-0.0103 -0.186035,-0.0155 -0.279052,-0.0155 -0.428915,0 -0.583944,0.13435 -0.155029,0.13436 -0.155029,0.54261 0,0.2222 0.0052,0.67696 0.01034,0.44958 0.01034,0.67179 0,0.14986 0.02067,0.44959 0.02067,0.29455 0.02067,0.43925 0,0.12402 -0.170532,0.13952 -0.248047,0.0207 -0.759644,0.0207 -0.490926,0 -0.785482,-0.031 -0.170532,-0.0207 -0.170532,-0.17054 0,-0.41341 0.0052,-1.23506 0.0052,-0.82683 0.0052,-1.24024 0,-1.21439 -0.222208,-1.99987 -0.01034,-0.0465 -0.01034,-0.0775 0,-0.0775 0.07752,-0.10335 0.28422,-0.031 0.831991,-0.11369 0.816487,-0.1602 0.842325,-0.1602 0.09302,0 0.118856,0.32556 0.02584,0.32557 0.09302,0.32557 -0.07235,0 0.423747,-0.26872 0.496093,-0.27389 0.956013,-0.27389 0.289388,0 0.289388,0.12403 0,0.14986 -0.031,0.42374 -0.03101,0.29456 -0.03617,0.42375 0,0.14986 0.0052,0.39791 0.01033,0.30489 0.01033,0.40308 z"
         style="fill:url(#linearGradient825);fill-opacity:1;stroke:none;stroke-width:0.30000001;stroke-miterlimit:4;stroke-dasharray:none;stroke-opacity:1"
         id="path1413" />
      <path
         d="m 88.255222,117.64808 q 0,0.18087 -0.155029,0.20154 -0.15503,0.0207 -0.764811,0.0207 -0.630453,0 -0.785482,-0.031 -0.155029,-0.031 -0.155029,-0.25322 0,-0.23771 0.0155,-0.70796 0.0155,-0.47543 0.0155,-0.71314 0,-0.90434 -0.02067,-1.28674 -0.03101,-0.61495 -0.583944,-0.61495 -0.242879,0 -0.485758,0.2067 -0.237712,0.20154 -0.26355,0.44959 -0.02067,0.21704 -0.02067,1.27124 0,0.24288 0.0155,0.73897 0.0155,0.49093 0.0155,0.73897 0,0.17054 -0.149861,0.17054 h -1.565796 q -0.144694,0 -0.144694,-0.21188 0,-0.24288 0.0155,-0.72863 0.0155,-0.48576 0.0155,-0.73381 0,-0.1912 -0.01034,-0.57878 -0.01033,-0.38757 -0.01033,-0.58394 0,-0.73897 -0.563273,-0.73897 -0.227376,0 -0.490926,0.1757 -0.289388,0.1912 -0.289388,0.40307 0,0.47026 0.0052,1.4056 0.0052,0.93535 0.0052,1.40043 0,0.1292 -0.03101,0.1602 -0.03101,0.031 -0.160197,0.0413 -0.232544,0.0207 -0.733805,0.0207 -0.325562,0 -0.738973,-0.031 -0.124023,-0.0103 -0.149862,-0.0362 -0.02067,-0.0258 -0.02067,-0.15503 0,-0.41341 0.0052,-1.23506 0.0052,-0.82683 0.0052,-1.24024 0,-0.84749 -0.124023,-1.90686 -0.01034,-0.062 -0.01034,-0.093 0,-0.0879 0.07235,-0.11886 0.113689,-0.0465 0.428915,-0.0775 0.387573,-0.0362 0.45992,-0.0465 0.05168,-0.0103 0.408244,-0.10852 0.253214,-0.0724 0.408244,-0.0724 0.09819,0 0.103352,0.36173 0.0052,0.35657 0.04134,0.35657 0.05168,-0.0207 0.118855,-0.0724 0.465088,-0.36173 0.733806,-0.49609 0.397908,-0.1912 0.862996,-0.1912 0.475423,0 0.847494,0.21187 0.418579,0.23771 0.542602,0.66663 0.273885,-0.37207 0.754476,-0.62529 0.480591,-0.25321 0.935343,-0.25321 0.682129,0 1.111044,0.31522 0.485758,0.35657 0.485758,1.01803 0,0.27388 -0.0155,0.82682 -0.0155,0.54777 -0.0155,0.82166 0,0.32556 0.0155,0.98185 0.0155,0.65112 0.0155,0.97668 z"
         style="fill:url(#linearGradient825);fill-opacity:1;stroke:none;stroke-width:0.30000001;stroke-miterlimit:4;stroke-dasharray:none;stroke-opacity:1"
         id="path1415" />
      <path
         d="m 94.430556,115.25547 q 0,0.3979 0.04651,1.18339 0.04651,0.78548 0.04651,1.17822 0,0.2067 -0.180867,0.22221 -0.640788,0.0465 -1.467611,0.0465 -0.09819,0 -0.134358,-0.29456 -0.03101,-0.29972 -0.07751,-0.30489 -0.04134,0.0207 -0.108521,0.0879 -0.578776,0.58394 -1.240234,0.58394 -1.00769,0 -1.669149,-0.79581 -0.625284,-0.74415 -0.625284,-1.77767 0,-1.19373 0.645955,-1.92237 0.671793,-0.75447 1.839681,-0.75447 0.81132,0 1.281575,0.56844 0.02067,0.0258 0.03617,0.0258 0.04651,0 0.103353,-0.24805 0.06201,-0.25322 0.144694,-0.25322 0.191202,0 0.728637,0.10853 0.511597,0.10335 0.733806,0.1757 0.07751,0.031 0.07751,0.0827 0,0.0207 -0.0155,0.10852 -0.165364,0.93534 -0.165364,1.97921 z m -1.663981,0.031 q 0,-0.43925 -0.279053,-0.72347 -0.273885,-0.28939 -0.718302,-0.28939 -0.444418,0 -0.718303,0.28422 -0.273885,0.28422 -0.273885,0.72864 0,0.41858 0.289388,0.7183 0.289388,0.29973 0.7028,0.29973 0.439249,0 0.718302,-0.28422 0.279053,-0.28939 0.279053,-0.73381 z"
         style="fill:url(#linearGradient825);fill-opacity:1;stroke:none;stroke-width:0.30000001;stroke-miterlimit:4;stroke-dasharray:none;stroke-opacity:1"
         id="path1417" />
    </g>
    <g
       aria-label="Games webshop"
       style="font-style:normal;font-variant:normal;font-weight:normal;font-stretch:normal;font-size:4.93888903px;line-height:1.25;font-family:'Berlin Sans FB Demi';-inkscape-font-specification:'Berlin Sans FB Demi';letter-spacing:0px;word-spacing:0px;fill:#ff6600;fill-opacity:1;stroke:none;stroke-width:0.30000001;stroke-miterlimit:4;stroke-dasharray:none;stroke-opacity:1"
       id="text829">
      <path
         d="m 62.729322,121.46038 q 0.0048,0.0651 -0.06752,0.0651 -0.04582,0 -0.265272,-0.053 -0.217041,-0.053 -0.267684,-0.0724 -0.504018,0.19775 -0.967039,0.19775 -0.745174,0 -1.222664,-0.49678 -0.472667,-0.48955 -0.472667,-1.23714 0,-0.76446 0.458197,-1.26848 0.472668,-0.5209 1.227488,-0.5209 0.366558,0 0.689708,0.13987 0.349677,0.15434 0.549837,0.43408 0.041,0.0579 0.041,0.082 0,0.0772 -0.217041,0.34726 -0.214629,0.26769 -0.27733,0.26769 -0.01447,0 -0.110932,-0.0989 -0.118167,-0.11816 -0.241157,-0.18328 -0.183279,-0.0989 -0.405143,-0.0989 -0.361735,0 -0.573953,0.2701 -0.197749,0.24839 -0.197749,0.61977 0,0.39308 0.204984,0.62218 0.212218,0.23634 0.60048,0.23634 0.24598,0 0.549837,-0.12299 -0.0072,-0.0796 -0.04341,-0.40515 -0.03135,-0.2508 -0.03135,-0.40514 0,-0.0458 0.03135,-0.0555 0.01206,-0.005 0.03859,-0.005 0.06994,0 0.209806,0.0145 0.142283,0.0121 0.21463,0.0121 0.07717,0 0.23151,-0.01 0.15434,-0.0121 0.231511,-0.0121 0.06029,0 0.06029,0.0796 0,0.11575 -0.01447,0.34967 -0.01206,0.23392 -0.01206,0.34968 0,0.31109 0.04582,0.93086 z"
         style="font-size:4.93888903px;fill:#ff6600;stroke:none;stroke-width:0.30000001;stroke-miterlimit:4;stroke-dasharray:none;stroke-opacity:1"
         id="path1420" />
      <path
         d="m 65.473685,120.33177 q 0,0.18569 0.0217,0.55225 0.0217,0.36656 0.0217,0.54983 0,0.0965 -0.08441,0.1037 -0.299034,0.0217 -0.684885,0.0217 -0.04582,0 -0.0627,-0.13746 -0.01447,-0.13987 -0.03617,-0.14229 -0.01929,0.01 -0.05064,0.041 -0.270095,0.27251 -0.578776,0.27251 -0.470255,0 -0.778936,-0.37138 -0.2918,-0.34727 -0.2918,-0.82958 0,-0.55707 0.301446,-0.89711 0.313504,-0.35208 0.858518,-0.35208 0.378616,0 0.598069,0.26527 0.0096,0.0121 0.01688,0.0121 0.0217,0 0.04823,-0.11576 0.02894,-0.11817 0.06752,-0.11817 0.08923,0 0.340031,0.0507 0.238745,0.0482 0.342442,0.082 0.03617,0.0145 0.03617,0.0386 0,0.01 -0.0072,0.0506 -0.07717,0.43649 -0.07717,0.92363 z m -0.776525,0.0145 q 0,-0.20499 -0.130224,-0.33762 -0.127813,-0.13505 -0.335208,-0.13505 -0.207395,0 -0.335208,0.13264 -0.127813,0.13263 -0.127813,0.34003 0,0.19533 0.135048,0.33521 0.135048,0.13987 0.327973,0.13987 0.204983,0 0.335208,-0.13264 0.130224,-0.13505 0.130224,-0.34244 z"
         style="font-size:4.93888903px;fill:#ff6600;stroke:none;stroke-width:0.30000001;stroke-miterlimit:4;stroke-dasharray:none;stroke-opacity:1"
         id="path1422" />
      <path
         d="m 69.807271,121.44832 q 0,0.0844 -0.07235,0.0941 -0.07235,0.01 -0.356912,0.01 -0.294211,0 -0.366558,-0.0145 -0.07235,-0.0145 -0.07235,-0.11816 0,-0.11094 0.0072,-0.33039 0.0072,-0.22186 0.0072,-0.3328 0,-0.42202 -0.0096,-0.60048 -0.01447,-0.28697 -0.272507,-0.28697 -0.113344,0 -0.226687,0.0965 -0.110932,0.094 -0.12299,0.20981 -0.0096,0.10128 -0.0096,0.59324 0,0.11335 0.0072,0.34486 0.0072,0.22909 0.0072,0.34485 0,0.0796 -0.06994,0.0796 h -0.730704 q -0.06752,0 -0.06752,-0.0989 0,-0.11335 0.0072,-0.34003 0.0072,-0.22669 0.0072,-0.34245 0,-0.0892 -0.0048,-0.27009 -0.0048,-0.18087 -0.0048,-0.27251 0,-0.34485 -0.262861,-0.34485 -0.106109,0 -0.229099,0.082 -0.135048,0.0892 -0.135048,0.1881 0,0.21946 0.0024,0.65595 0.0024,0.43649 0.0024,0.65353 0,0.0603 -0.01447,0.0748 -0.01447,0.0145 -0.07476,0.0193 -0.108521,0.01 -0.342443,0.01 -0.151929,0 -0.344854,-0.0145 -0.05788,-0.005 -0.06994,-0.0169 -0.0096,-0.0121 -0.0096,-0.0724 0,-0.19292 0.0024,-0.57636 0.0024,-0.38585 0.0024,-0.57878 0,-0.39549 -0.05788,-0.88986 -0.0048,-0.0289 -0.0048,-0.0434 0,-0.041 0.03376,-0.0555 0.05305,-0.0217 0.20016,-0.0362 0.180867,-0.0169 0.214629,-0.0217 0.02412,-0.005 0.190514,-0.0506 0.118167,-0.0338 0.190514,-0.0338 0.04582,0 0.04823,0.16881 0.0024,0.1664 0.01929,0.1664 0.02411,-0.01 0.05547,-0.0338 0.217041,-0.16881 0.342442,-0.23151 0.185691,-0.0892 0.402732,-0.0892 0.221864,0 0.395497,0.0989 0.195337,0.11093 0.253214,0.31109 0.127813,-0.17363 0.352089,-0.2918 0.224276,-0.11816 0.436494,-0.11816 0.318327,0 0.518487,0.1471 0.226687,0.1664 0.226687,0.47508 0,0.12781 -0.0072,0.38585 -0.0072,0.25563 -0.0072,0.38344 0,0.15193 0.0072,0.4582 0.0072,0.30386 0.0072,0.45578 z"
         style="font-size:4.93888903px;fill:#ff6600;stroke:none;stroke-width:0.30000001;stroke-miterlimit:4;stroke-dasharray:none;stroke-opacity:1"
         id="path1424" />
      <path
         d="m 72.474463,120.22807 q 0,0.24357 -0.156751,0.27733 -0.02653,0.005 -0.499195,0.0531 -0.284565,0.0314 -0.848871,0.0748 0.03376,0.15676 0.204983,0.23875 0.139871,0.0675 0.318327,0.0675 0.214629,0 0.43167,-0.11575 0.09164,-0.0579 0.183279,-0.11576 0.05064,0.0241 0.16881,0.24598 0.120578,0.22187 0.120578,0.28216 0,0.0169 -0.03617,0.0555 -0.294211,0.31592 -0.913984,0.31592 -0.573953,0 -0.926042,-0.33521 -0.361735,-0.34003 -0.361735,-0.90916 0,-0.55466 0.32315,-0.90916 0.332796,-0.36656 0.882634,-0.36656 0.46302,0 0.78617,0.33762 0.32315,0.33762 0.32315,0.80305 z m -0.844048,-0.1471 q 0,-0.14952 -0.106109,-0.26287 -0.106109,-0.11334 -0.253215,-0.11334 -0.151928,0 -0.250802,0.12781 -0.09164,0.11817 -0.09164,0.27733 0,0.0651 0.06752,0.0651 0.178456,0 0.55466,-0.0555 0.07958,-0.0121 0.07958,-0.0386 z"
         style="font-size:4.93888903px;fill:#ff6600;stroke:none;stroke-width:0.30000001;stroke-miterlimit:4;stroke-dasharray:none;stroke-opacity:1"
         id="path1426" />
      <path
         d="m 74.155325,119.58659 q 0,0.0241 -0.03617,0.0651 -0.06752,-0.0169 -0.135048,-0.0169 -0.142282,0 -0.238745,0.0627 -0.115755,0.0723 -0.115755,0.20498 0,0.0844 0.12299,0.21463 0.18569,0.19534 0.229099,0.26286 0.122989,0.18328 0.122989,0.39309 0,0.12299 -0.04823,0.26044 -0.05547,0.15193 -0.139871,0.22187 -0.178456,0.15434 -0.417201,0.26045 -0.258037,0.11093 -0.475078,0.11093 -0.04823,0 -0.217041,-0.26045 -0.166399,-0.26286 -0.166399,-0.32074 0,-0.0217 0.02653,-0.0265 0.168809,-0.0313 0.340031,-0.0627 0.212217,-0.0675 0.212217,-0.22186 0,-0.10611 -0.122989,-0.24598 -0.219453,-0.24357 -0.229099,-0.25804 -0.12299,-0.17363 -0.12299,-0.36656 0,-0.36173 0.366558,-0.61495 0.327973,-0.22427 0.701766,-0.22427 0.03858,0 0.190514,0.26045 0.151928,0.25804 0.151928,0.30144 z"
         style="font-size:4.93888903px;fill:#ff6600;stroke:none;stroke-width:0.30000001;stroke-miterlimit:4;stroke-dasharray:none;stroke-opacity:1"
         id="path1428" />
      <path
         d="m 79.1955,119.84946 q 0,0.3762 -0.06029,0.52331 -0.0627,0.15434 -0.313504,0.57395 -0.255626,0.43167 -0.352088,0.53537 -0.06511,0.0699 -0.318327,0.0699 -0.209806,0 -0.265272,-0.0145 -0.04582,-0.0121 -0.08441,-0.0482 -0.13746,-0.13505 -0.424436,-0.66318 -0.303858,0.5426 -0.41479,0.66318 -0.05788,0.0627 -0.315915,0.0627 -0.183279,0 -0.236333,-0.0145 -0.120579,-0.0338 -0.407555,-0.52331 -0.233922,-0.40032 -0.335208,-0.64147 -0.0627,-0.15435 -0.0627,-0.52331 0,-0.44614 0.02412,-0.54502 0.01688,-0.0627 0.08441,-0.0627 0.110932,0 0.332796,0.007 0.221864,0.007 0.332796,0.007 0.05547,0 0.05547,0.0796 0,0.0699 -0.0048,0.21463 -0.0048,0.14228 -0.0048,0.21222 0,0.2918 0.01447,0.43167 0.0048,0.053 0.127813,0.27251 0.125402,0.21704 0.154341,0.21704 0.04341,0 0.159163,-0.21463 0.09405,-0.18087 0.12299,-0.26769 0.02894,-0.0892 0.02894,-0.43649 0,-0.0724 -0.01447,-0.21463 -0.01206,-0.14469 -0.01206,-0.21463 0,-0.0748 0.05547,-0.0748 0.06752,0 0.267684,-0.002 l 0.09887,-0.002 q -0.0024,0 -0.0096,0 -0.0048,-0.002 -0.0024,0 h 0.01688 0.0627 q 0.09164,-0.002 0.267684,0.005 0.05305,0.007 0.05305,0.0748 0,0.0916 -0.01206,0.27974 -0.01206,0.18569 -0.01206,0.27733 0,0.24598 0.01929,0.3111 0.02653,0.082 0.115755,0.26286 0.108521,0.21704 0.151929,0.21704 0.04341,0 0.161575,-0.21946 0.113344,-0.2098 0.120578,-0.27491 0.0096,-0.0916 0.0096,-0.8537 0,-0.0844 0.04823,-0.0844 0.110932,0 0.332796,-0.007 0.224276,-0.007 0.335208,-0.007 0.06511,0 0.08199,0.0675 0.02653,0.10129 0.02653,0.54502 z"
         style="font-size:4.93888903px;fill:#ff6600;stroke:none;stroke-width:0.30000001;stroke-miterlimit:4;stroke-dasharray:none;stroke-opacity:1"
         id="path1430" />
      <path
         d="m 81.686649,120.22807 q 0,0.24357 -0.156752,0.27733 -0.02653,0.005 -0.499194,0.0531 -0.284565,0.0314 -0.848872,0.0748 0.03376,0.15676 0.204984,0.23875 0.139871,0.0675 0.318326,0.0675 0.21463,0 0.431671,-0.11575 0.09164,-0.0579 0.183279,-0.11576 0.05064,0.0241 0.16881,0.24598 0.120578,0.22187 0.120578,0.28216 0,0.0169 -0.03617,0.0555 -0.294212,0.31592 -0.913984,0.31592 -0.573953,0 -0.926042,-0.33521 -0.361735,-0.34003 -0.361735,-0.90916 0,-0.55466 0.32315,-0.90916 0.332796,-0.36656 0.882633,-0.36656 0.463021,0 0.786171,0.33762 0.32315,0.33762 0.32315,0.80305 z m -0.844048,-0.1471 q 0,-0.14952 -0.106109,-0.26287 -0.106109,-0.11334 -0.253215,-0.11334 -0.151928,0 -0.250803,0.12781 -0.09164,0.11817 -0.09164,0.27733 0,0.0651 0.06752,0.0651 0.178456,0 0.55466,-0.0555 0.07958,-0.0121 0.07958,-0.0386 z"
         style="font-size:4.93888903px;fill:#ff6600;stroke:none;stroke-width:0.30000001;stroke-miterlimit:4;stroke-dasharray:none;stroke-opacity:1"
         id="path1432" />
      <path
         d="m 84.570882,120.3583 q 0,0.50642 -0.289388,0.84646 -0.30868,0.36173 -0.805463,0.36173 -0.361735,0 -0.583599,-0.20739 -0.01688,-0.0145 -0.02894,-0.0145 -0.02412,0 -0.04582,0.0892 -0.01929,0.0892 -0.04823,0.0989 -0.041,0.0121 -0.687297,0.0121 -0.151929,0 -0.151929,-0.0555 0,-0.007 0.0048,-0.0362 0.04823,-0.38344 0.04823,-1.46141 0,-1.02974 -0.07235,-1.7918 l -0.0024,-0.0265 q 0,-0.0386 0.07476,-0.0434 0.05305,-0.002 0.419613,-0.0362 0.258037,-0.0241 0.419612,-0.0241 0.04582,0 0.04582,0.0796 0,0.0941 -0.01206,0.24839 -0.01447,0.19052 -0.01688,0.2508 -0.01206,0.23875 -0.01206,0.65113 0,0.0748 0.03858,0.0748 0.01929,0 0.03617,-0.0193 0.217041,-0.23151 0.56913,-0.23151 0.528133,0 0.824756,0.35933 0.274918,0.33279 0.274918,0.8754 z m -0.872987,-0.0265 q 0,-0.20016 -0.12299,-0.33762 -0.12299,-0.13987 -0.320738,-0.13987 -0.202572,0 -0.320739,0.13987 -0.115755,0.13746 -0.115755,0.34244 0,0.21222 0.113344,0.34244 0.120578,0.13746 0.327973,0.13746 0.204983,0 0.325561,-0.14228 0.113344,-0.13264 0.113344,-0.34244 z"
         style="font-size:4.93888903px;fill:#ff6600;stroke:none;stroke-width:0.30000001;stroke-miterlimit:4;stroke-dasharray:none;stroke-opacity:1"
         id="path1434" />
      <path
         d="m 86.280684,119.58659 q 0,0.0241 -0.03617,0.0651 -0.06752,-0.0169 -0.135047,-0.0169 -0.142283,0 -0.238745,0.0627 -0.115756,0.0723 -0.115756,0.20498 0,0.0844 0.12299,0.21463 0.185691,0.19534 0.229099,0.26286 0.12299,0.18328 0.12299,0.39309 0,0.12299 -0.04823,0.26044 -0.05547,0.15193 -0.139871,0.22187 -0.178456,0.15434 -0.417201,0.26045 -0.258038,0.11093 -0.475079,0.11093 -0.04823,0 -0.217041,-0.26045 -0.166398,-0.26286 -0.166398,-0.32074 0,-0.0217 0.02653,-0.0265 0.16881,-0.0313 0.340031,-0.0627 0.212218,-0.0675 0.212218,-0.22186 0,-0.10611 -0.12299,-0.24598 -0.219452,-0.24357 -0.229099,-0.25804 -0.12299,-0.17363 -0.12299,-0.36656 0,-0.36173 0.366559,-0.61495 0.327973,-0.22427 0.701765,-0.22427 0.03859,0 0.190514,0.26045 0.151929,0.25804 0.151929,0.30144 z"
         style="font-size:4.93888903px;fill:#ff6600;stroke:none;stroke-width:0.30000001;stroke-miterlimit:4;stroke-dasharray:none;stroke-opacity:1"
         id="path1436" />
      <path
         d="m 89.032282,119.78917 -0.0048,1.66398 q 0,0.0844 -0.06752,0.0941 -0.07717,0.01 -0.352089,0.01 -0.265272,0 -0.368969,-0.0193 -0.07958,-0.0145 -0.07958,-0.1037 0,-0.20739 0.0072,-0.62459 0.0072,-0.4172 0.0072,-0.6246 0,-0.28215 -0.286976,-0.28215 -0.09646,0 -0.226687,0.0772 -0.142283,0.0844 -0.142283,0.17604 v 0.59566 q 0,0.11576 0.0048,0.34968 0.0048,0.23151 0.0048,0.34726 0,0.0892 -0.07476,0.0989 -0.07476,0.01 -0.419613,0.01 -0.197748,0 -0.284565,-0.0193 -0.08682,-0.0193 -0.08682,-0.0844 0,-0.19052 0.0024,-0.57154 0.0024,-0.38344 0.0024,-0.57396 0,-0.78858 -0.01688,-1.30465 -0.0072,-0.18087 -0.01206,-0.36174 -0.01206,-0.20981 -0.04341,-0.35932 -0.0072,-0.0314 -0.0072,-0.0458 0,-0.0362 0.03617,-0.0482 0.07476,-0.0217 0.219452,-0.0265 0.192926,-0.007 0.224276,-0.0121 0.436494,-0.0506 0.436494,-0.0506 0.03858,0 0.03858,0.0506 0,0.0772 -0.0096,0.20981 -0.0096,0.15434 -0.0096,0.2098 -0.01447,0.54502 -0.01447,0.86093 0,0.0482 0.02411,0.0482 0.0048,0 0.12299,-0.0844 0.139871,-0.0989 0.267684,-0.15675 0.190514,-0.0844 0.36897,-0.0844 0.308681,0 0.516075,0.16158 0.224276,0.17363 0.224276,0.47508 z"
         style="font-size:4.93888903px;fill:#ff6600;stroke:none;stroke-width:0.30000001;stroke-miterlimit:4;stroke-dasharray:none;stroke-opacity:1"
         id="path1438" />
      <path
         d="m 91.742882,120.35106 q 0,0.54984 -0.337619,0.89228 -0.335208,0.34244 -0.882634,0.34244 -0.530544,0 -0.872987,-0.33762 Q 89.3072,120.91054 89.3072,120.38 q 0,-0.55948 0.327973,-0.90675 0.327973,-0.34968 0.887456,-0.34968 0.545015,0 0.882634,0.34245 0.337619,0.34003 0.337619,0.88504 z m -0.790994,0 q 0,-0.19051 -0.118166,-0.33521 -0.118167,-0.1471 -0.306269,-0.1471 -0.190514,0 -0.313504,0.14951 -0.115755,0.13988 -0.115755,0.3328 0,0.19534 0.115755,0.33521 0.12299,0.14952 0.313504,0.14952 0.188102,0 0.311092,-0.14952 0.113343,-0.13987 0.113343,-0.33521 z"
         style="font-size:4.93888903px;fill:#ff6600;stroke:none;stroke-width:0.30000001;stroke-miterlimit:4;stroke-dasharray:none;stroke-opacity:1"
         id="path1440" />
      <path
         d="m 94.697053,120.37759 q 0,0.51607 -0.303858,0.8561 -0.313503,0.35209 -0.822344,0.35209 -0.185691,0 -0.397908,-0.0916 -0.212218,-0.0916 -0.192926,-0.0916 -0.03135,0 -0.03135,0.0724 0,0.12299 0.01206,0.36897 0.01206,0.24839 0.01206,0.37138 0,0.0772 -0.07958,0.0772 l -0.49196,0.002 q -0.166398,0 -0.214629,-0.0121 -0.07235,-0.0169 -0.07235,-0.0892 l 0.0048,-1.85691 q 0,-0.56189 -0.08441,-0.94774 -0.0048,-0.0241 -0.0048,-0.041 0,-0.0362 0.02894,-0.0482 0.09405,-0.0362 0.359323,-0.0772 0.258038,-0.041 0.373793,-0.041 0.09405,0 0.106109,0.1254 0.01447,0.12299 0.03376,0.12299 -0.02412,0 0.204983,-0.13022 0.23151,-0.13264 0.419613,-0.13264 0.52331,0 0.836813,0.34486 0.303858,0.33279 0.303858,0.86575 z m -0.894691,-0.005 q 0,-0.19293 -0.118167,-0.33762 -0.127813,-0.15193 -0.315916,-0.15193 -0.192925,0 -0.30868,0.15193 -0.101286,0.13746 -0.101286,0.33762 0,0.20498 0.106109,0.34003 0.113344,0.1471 0.313504,0.1471 0.424436,0 0.424436,-0.48713 z"
         style="font-size:4.93888903px;fill:#ff6600;stroke:none;stroke-width:0.30000001;stroke-miterlimit:4;stroke-dasharray:none;stroke-opacity:1"
         id="path1442" />
    </g>
  </g>
</svg>
